<?xml version="1.0" encoding="utf-8"?>
<!-- Generator: Adobe Illustrator 23.0.3, SVG Export Plug-In . SVG Version: 6.00 Build 0)  -->
<svg version="1.1" id="Layer_1" xmlns="http://www.w3.org/2000/svg" xmlns:xlink="http://www.w3.org/1999/xlink" x="0px" y="0px"
	 viewBox="0 0 595.28 595.28" style="enable-background:new 0 0 595.28 595.28;" xml:space="preserve">
<style type="text/css">
	.st0{fill:#CF8B4C;}
	.st1{fill:#99637D;}
	.st2{fill:#B4624A;}
	.st3{fill:#B5AE64;}
	.st4{fill:#5D899D;}
	.st5{fill:#DA1C5C;}
	.st6{fill:#F7941D;}
	.st7{fill:#BE1E2D;}
	.st8{fill:#662D91;}
	.st9{fill:#1B75BC;}
	.st10{fill:#A77D52;}
	.st11{fill:#603A17;}
	.st12{fill:#544842;}
	.st13{fill:#676767;}
	.st14{fill:#754D25;}
	.st15{fill:#FBB03B;}
	.st16{fill:#3DB54A;}
	.st17{fill:#2AAAE2;}
	.st18{fill:#932A8E;}
	.st19{fill:#126554;}
	.st20{fill:#2C4D5F;}
	.st21{fill:#CE862A;}
	.st22{fill:#C83B27;}
	.st23{fill:#826D53;}
	.st24{fill:#E177AF;}
	.st25{fill:#2B97D4;}
	.st26{fill:#B28147;}
	.st27{fill:#EE8554;}
	.st28{fill:#FCD611;}
	.st29{fill:#EE292A;}
	.st30{fill:#73A643;}
	.st31{fill:#D4562A;}
	.st32{fill:#00A0D5;}
	.st33{fill:#A04D48;}
	.st34{fill:#A03E39;}
	.st35{fill:#6B9672;}
	.st36{fill:#F15B27;}
	.st37{fill:#6EC2E6;}
	.st38{fill:#0B7BA8;}
	.st39{fill:#1696CD;}
	.st40{fill:#1CB5D0;}
	.st41{fill:#004F70;}
</style>
<path class="st22" d="M395.56,265.78c-37.75-9.44-72.27-1.38-77.12,18.01c-1.95,7.82,1.22,16.28,8.18,24.22
	c-3.6,8.72-5.1,18.65-6.02,28.13c-2.91,30.2-2.45,60.72,1.38,90.81c1.21,9.5,2.67,19.58-1.28,28.3
	c-3.95,8.72-15.79,14.54-23.41,8.74c-6.14-4.67-6.29-13.69-5.91-21.4c0.79-16.13,1.41-32.27,1.88-48.42c6.76-0.87,12-6.63,12-13.63
	c0-6.77-4.89-12.38-11.33-13.53c0.04-2.08,0.08-4.17,0.12-6.25c6.38-1.19,11.22-6.78,11.22-13.51c0-6.6-4.65-12.11-10.86-13.44
	c0.02-2.14,0.04-4.28,0.06-6.42c6.17-1.35,10.8-6.85,10.8-13.43c0-6.54-4.57-12.01-10.69-13.4c0-2.16,0-4.33-0.01-6.49
	c6.12-1.39,10.7-6.86,10.7-13.4c0-6.58-4.63-12.08-10.81-13.43c-0.01-2.14-0.03-4.28-0.05-6.42c6.2-1.33,10.85-6.84,10.85-13.44
	c0-6.7-4.79-12.27-11.13-13.5c-0.08-6.54-0.17-13.09-0.27-19.63h4.53c2.77,0,5.02,2.25,5.02,5.02v0.05h4.74
	c3.25,0,5.88-2.63,5.88-5.88v-5.38c0-3.25-2.63-5.88-5.88-5.88h-4.74v0.05c0,2.77-2.25,5.02-5.02,5.02h-4.64
	c-0.08-4.84-0.16-9.68-0.24-14.51h4.88c2.77,0,5.02,2.25,5.02,5.02v0.05h4.74c3.25,0,5.88-2.63,5.88-5.88v-5.38
	c0-3.25-2.63-5.88-5.88-5.88h-4.74v0.05c0,2.77-2.25,5.02-5.02,5.02h-5c-0.09-4.84-0.17-9.68-0.26-14.51h5.26
	c2.77,0,5.02,2.25,5.02,5.02v0.05h4.74c3.25,0,5.88-2.63,5.88-5.88v-5.38c0-3.25-2.63-5.88-5.88-5.88h-4.74v0.05
	c0,2.77-2.25,5.02-5.02,5.02h-5.4c-0.2-10.59-0.41-21.19-0.62-31.78c-0.23-11.87-0.51-23.97-4.39-35.18
	c-3.88-11.22-12.03-21.62-23.37-25.11c-16.29-5.01-32.98,5.06-47.29,14.32c-5.96,3.86-12.49,7.7-19.22,10.39h-13.11v-2.93
	c0-2.15-1.74-3.89-3.89-3.89h-0.08c-2.15,0-3.89,1.74-3.89,3.89v2.93h-13.06c-2.55,0-4.61-2.06-4.61-4.61v-0.05h-2.94
	c-1.2,0-2.17,0.97-2.17,2.17v0.59c0,1.7-1.17,3.18-2.82,3.58l-9.27,2.24c-1.58,0.38-2.69,1.79-2.69,3.41v0.66
	c0,1.62,1.11,3.03,2.69,3.41l9.27,2.24c1.65,0.4,2.82,1.88,2.82,3.58v0.05c0,1.2,0.97,2.17,2.17,2.17h2.94v-0.69
	c0-2.55,2.06-4.61,4.61-4.61h13.06v3.43c0,2.15,1.74,3.89,3.89,3.89h0.08c2.15,0,3.89-1.74,3.89-3.89v-2.7
	c1.75-0.05,3.52-0.32,5.25-0.74h7.95v-2.92c10.04-4.75,18.58-12.33,28.4-17.61c10.65-5.74,24.6-8.36,34.35-1.19
	c11.28,8.3,11.35,24.82,10.33,38.79c-4,54.33-7.99,108.66-11.99,162.99h-8.57c-2.77,0-5.02-2.25-5.02-5.02v-0.05h-4.74
	c-3.25,0-5.88,2.63-5.88,5.88v5.38c0,3.25,2.63,5.88,5.88,5.88h4.74v-0.05c0-2.77,2.25-5.02,5.02-5.02h8.05
	c-0.36,4.84-0.71,9.68-1.07,14.51h-6.99c-2.77,0-5.02-2.25-5.02-5.02v-0.05h-4.74c-3.25,0-5.88,2.63-5.88,5.88v5.38
	c0,3.25,2.63,5.88,5.88,5.88h4.74v-0.05c0-2.77,2.25-5.02,5.02-5.02h6.47c-0.36,4.84-0.71,9.68-1.07,14.51h-5.4
	c-2.77,0-5.02-2.25-5.02-5.02v-0.05h-4.74c-3.25,0-5.88,2.63-5.88,5.88v5.38c0,3.25,2.63,5.88,5.88,5.88h4.74v-0.05
	c0-2.77,2.25-5.02,5.02-5.02h4.89c-2.53,34.41-5.06,68.83-7.59,103.24c-1.14,15.51-2.19,31.66,3.64,46.09
	c7.94,19.66,28.56,32.94,49.74,33.94c21.18,1.01,42.14-9.44,55.71-25.73c14.85-17.83,20.97-41.24,25.11-64.07
	c4.14-22.83,6.81-46.29,16.28-67.48c4.54-10.16,11.03-19.82,19.08-27.53c19.83-1.74,34.52-9.43,37.56-21.58
	C459.97,298.58,433.3,275.22,395.56,265.78z M430,295.95c-11.47,9.05-21.22,20.26-28.6,32.87c-3.98-0.06-8.16-0.41-12.46-1.09
	c2.46-4.07,4.93-8.14,7.39-12.21c6.31-10.42,12.7-20.94,20.79-30.02C422.4,288.67,426.78,292.23,430,295.95z M402.99,278.8
	c-6.17,16.21-13.22,32.08-21.1,47.53c-0.46-0.11-0.93-0.21-1.39-0.33c-4.37-1.09-8.52-2.45-12.41-4
	c9.61-14.35,16.65-30.42,20.67-47.22c1.43,0.29,2.86,0.61,4.3,0.97C396.51,276.61,399.83,277.64,402.99,278.8z M376.35,273.11
	c-3.05,15.86-7.9,31.38-14.45,46.14c-3.25-1.61-6.24-3.36-8.94-5.22c3.79-13.08,6.06-26.59,6.76-40.19
	C364.74,272.98,370.37,272.72,376.35,273.11z M344.05,417.39c-5.84,0-10.58-4.74-10.58-10.58s4.74-10.58,10.58-10.58
	c5.84,0,10.58,4.74,10.58,10.58S349.89,417.39,344.05,417.39z M353.44,434.23c0,5.29-4.29,9.59-9.59,9.59
	c-5.29,0-9.58-4.29-9.58-9.59c0-5.29,4.29-9.59,9.58-9.59C349.14,424.64,353.44,428.94,353.44,434.23z M345.84,387.37
	c-6.84,0-12.38-5.54-12.38-12.38c0-6.84,5.54-12.38,12.38-12.38c6.84,0,12.38,5.54,12.38,12.38
	C358.22,381.83,352.68,387.37,345.84,387.37z M337.85,288.64c1.38-5.51,6.12-9.74,13.02-12.42c0.76,11.14-0.57,22.41-3.91,33.06
	C339.77,302.7,336.17,295.34,337.85,288.64z M332.64,319.39c2.29,2.63,5.26,4.66,8.54,5.86c-1.74,7.62-2.58,15.44-2.51,23.26
	c0.05,5.03-4.4,8.93-9.4,8.33c-0.03,0-0.07-0.01-0.1-0.01C328.62,344.26,329.79,331.63,332.64,319.39z M304.78,485.31
	c-0.73,8.35-3.64,16.52-8.32,23.48c-2.09,3.11-6.1,4.27-9.59,2.92c-5.65-2.18-10.98-5.2-15.59-8.91c-2.95-2.38-3.87-6.51-2.13-9.88
	c2.11-4.1,5.42-7.66,9.23-10.33c3.87-2.71,8.22-4.6,12.72-6.06c1.51-0.49,3.16-0.5,4.65,0.05c0.67,0.25,1.38,0.47,2.12,0.67
	c0.35,0.09,0.7,0.18,1.04,0.26C302.55,478.31,305.1,481.59,304.78,485.31z M256,476.64c-0.45-4.43-0.64-9.78-0.65-15.59
	c0-1.48,0.7-2.86,1.88-3.76c2.9-2.21,6.39-3.7,9.99-4.34c3.74-0.66,7.57-0.47,11.29,0.35c1.92,0.42,3.34,2.04,3.56,3.99
	c0.29,2.62,0.85,5.23,1.8,7.66c0.57,1.46,0.3,3.12-0.63,4.38c-5.17,7-13.83,11.4-22.53,11.53c-2.37,0.03-4.44-1.71-4.69-4.07
	C256.01,476.74,256.01,476.69,256,476.64z M256.67,427.83c0.13-1.96,1.28-3.69,3.01-4.62c3.25-1.74,6.98-2.58,10.66-2.26
	c3.93,0.33,7.71,1.97,10.72,4.51c1.32,1.11,2.02,2.8,1.93,4.53c-0.11,2.3-0.22,4.53-0.33,6.61c-0.1,1.96-1.22,3.71-2.94,4.66
	c-3.23,1.78-6.63,3.22-10.23,3.96c-2.98,0.61-6.13,0.67-9.11,0.07c-2.69-0.54-4.55-3.04-4.41-5.78
	C256.17,435.54,256.41,431.61,256.67,427.83z M298.15,380.55c0,3.68-2.98,6.67-6.67,6.67c-3.68,0-6.67-2.98-6.67-6.67
	c0-3.68,2.98-6.67,6.67-6.67C295.17,373.88,298.15,376.86,298.15,380.55z M298.15,347.25c0,3.68-2.98,6.67-6.67,6.67
	c-3.68,0-6.67-2.98-6.67-6.67c0-3.68,2.98-6.67,6.67-6.67C295.17,340.59,298.15,343.57,298.15,347.25z M298.15,313.96
	c0,3.68-2.98,6.67-6.67,6.67c-3.68,0-6.67-2.98-6.67-6.67c0-3.68,2.98-6.67,6.67-6.67C295.17,307.29,298.15,310.28,298.15,313.96z
	 M298.15,280.66c0,3.68-2.98,6.67-6.67,6.67c-3.68,0-6.67-2.98-6.67-6.67c0-3.68,2.98-6.67,6.67-6.67
	C295.17,274,298.15,276.98,298.15,280.66z M291.49,240.7c3.68,0,6.67,2.98,6.67,6.67c0,3.68-2.98,6.67-6.67,6.67
	c-3.68,0-6.67-2.98-6.67-6.67C284.82,243.69,287.81,240.7,291.49,240.7z M274.44,167.92h11.16v8.77h-11.16V167.92z M274.44,184.37
	h11.16v8.77h-11.16V184.37z M274.44,200.82h11.16v8.77h-11.16V200.82z M274.44,217.26h11.16v8.77h-11.16V217.26z M272.45,234.71
	h6.28v45.34c0,1.72-1.39,3.11-3.11,3.11h-0.06c-1.72,0-3.11-1.39-3.11-3.11V234.71z M267.96,289.73h11.11
	c2.62,0,4.74,2.12,4.74,4.74v0.1c0,2.62-2.12,4.74-4.74,4.74h-11.11V289.73z M266.27,324.87h12.81c2.62,0,4.74,2.12,4.74,4.74v0.1
	c0,2.62-2.12,4.74-4.74,4.74h-12.81V324.87z M262.94,359.26h16.13c2.62,0,4.74,2.12,4.74,4.74v0.1c0,2.62-2.12,4.74-4.74,4.74
	h-16.13V359.26z M269.27,396.2h3.82c6.19,0,11.14,5.15,10.89,11.33c-0.01,0.18-0.01,0.35-0.02,0.53c-0.11,2.72-1.91,5.07-4.48,5.94
	c-2.69,0.91-5.55,1.33-8.39,1.18c-3.22-0.16-6.39-1.04-9.26-2.52c-2.33-1.2-3.66-3.75-3.42-6.36c0.01-0.07,0.01-0.15,0.02-0.22
	C258.94,400.48,263.64,396.2,269.27,396.2z M321.43,513.74c-4.31-4.73-6.94-11-8.11-17.35c-1.21-6.58-1.03-13.32-0.56-20.01
	c2.9-1.12,5.36-2.64,7.26-4.07c2.66-1.99,6.22-2.35,9.12-0.73c6.52,3.64,15.43,5.72,21.41,6.79c3.57,0.64,5.55,4.56,3.89,7.79
	C349.12,496.53,337.23,508.97,321.43,513.74z M380.27,380.9c-3.84,14.69-5.67,29.82-7.85,44.84c-2.21,15.23-8.35,32.99-11.11,40.5
	c-0.73,1.99-2.99,2.94-4.92,2.07l-0.06-0.03c-1.65-0.74-2.52-2.56-2.04-4.3c2.35-8.57,8.91-34.02,10.95-58.26
	c1.75-20.79,5.22-41.93,14.99-60.37c0.95-1.79,1.99-3.59,3.56-4.88c2.29-1.89,5.44-2.45,8.39-2.15c2.95,0.29,5.76,1.35,8.53,2.39
	C390.33,351.81,384.1,366.21,380.27,380.9z M435.71,313.11c-2.19,8.77-12.87,14.3-27.25,15.48c7.25-9.64,16.38-17.87,26.71-24.09
	C436.18,307.42,436.41,310.32,435.71,313.11z"/>
</svg>
